{
  "accessors": [
    {
      "bufferView": 2,
      "componentType": 5126,
      "count": 3243,
      "max": [
        0.53825801610946655,
        0.4052090048789978,
        1
      ],
      "min": [
        -0.53825801610946655,
        -0.4052090048789978,
        -1
      ],
      "type": "VEC3"
    },
    {
      "bufferView": 2,
      "byteOffset": 38916,
      "componentType": 5126,
      "count": 3243,
      "max": [
        0.99724698066711426,
        0.99877899885177612,
        0.99999922513961792
      ],
      "min": [
        -0.99724709987640381,
        -0.9999997615814209,
        -0.99468666315078735
      ],
      "type": "VEC3"
    },
    {
      "bufferView": 3,
      "componentType": 5126,
      "count": 3243,
      "max": [
        1,
        0.99996113777160645,
        0.9875529408454895,
        1
      ],
      "min": [
        -0.99010676145553589,
        -0.99988937377929688,
        -0.87459677457809448,
        1
      ],
      "type": "VEC4"
    },
    {
      "bufferView": 1,
      "componentType": 5126,
      "count": 3243,
      "max": [
        0.92963802814483643,
        0.91867399215698242
      ],
      "min": [
        0.013794300146400928,
        0.0019920200575143099
      ],
      "type": "VEC2"
    },
    {
      "bufferView": 0,
      "componentType": 5125,
      "count": 15132,
      "max": [
        3242
      ],
      "min": [
        0
      ],
      "type": "SCALAR"
    },
    {
      "bufferView": 2,
      "byteOffset": 77832,
      "componentType": 5126,
      "count": 238,
      "max": [
        0.11553200334310532,
        0.33894601464271545,
        0.87563502788543701
      ],
      "min": [
        -0.11662399768829346,
        0.22920599579811096,
        0.77126598358154297
      ],
      "type": "VEC3"
    },
    {
      "bufferView": 2,
      "byteOffset": 80688,
      "componentType": 5126,
      "count": 238,
      "max": [
        1,
        1,
        0.95105689764022827
      ],
      "min": [
        -1,
        -1,
        -0.95105689764022827
      ],
      "type": "VEC3"
    },
    {
      "bufferView": 3,
      "byteOffset": 51888,
      "componentType": 5126,
      "count": 238,
      "max": [
        1,
        0.15448150038719177,
        1,
        1
      ],
      "min": [
        -1,
        -0.15448634326457977,
        -1,
        1
      ],
      "type": "VEC4"
    },
    {
      "bufferView": 1,
      "byteOffset": 25944,
      "componentType": 5126,
      "count": 238,
      "max": [
        1,
        1
      ],
      "min": [
        0,
        0
      ],
      "type": "VEC2"
    },
    {
      "bufferView": 0,
      "byteOffset": 60528,
      "componentType": 5125,
      "count": 1080,
      "max": [
        237
      ],
      "min": [
        0
      ],
      "type": "SCALAR"
    }
  ],
  "asset": {
    "extras": {
      "author": "KugatsuT (https://sketchfab.com/KugatsuT)",
      "license": "CC-BY-4.0 (http://creativecommons.org/licenses/by/4.0/)",
      "source": "https://sketchfab.com/models/676115a924214e8289b9e03fb9b9a4ab",
      "title": "Dotted White Seal - Free Giveaway"
    },
    "generator": "Sketchfab-3.35.7",
    "version": "2.0"
  },
  "bufferViews": [
    {
      "buffer": 0,
      "byteLength": 64848,
      "byteOffset": 0,
      "name": "floatBufferViews",
      "target": 34963
    },
    {
      "buffer": 0,
      "byteLength": 27848,
      "byteOffset": 64848,
      "byteStride": 8,
      "name": "floatBufferViews",
      "target": 34962
    },
    {
      "buffer": 0,
      "byteLength": 83544,
      "byteOffset": 92696,
      "byteStride": 12,
      "name": "floatBufferViews",
      "target": 34962
    },
    {
      "buffer": 0,
      "byteLength": 55696,
      "byteOffset": 176240,
      "byteStride": 16,
      "name": "floatBufferViews",
      "target": 34962
    }
  ],
  "buffers": [
    {
      "byteLength": 231936,
      "uri": "scene.bin"
    }
  ],
  "images": [
    {
      "uri": "textures/SealEyesTex_baseColor.jpeg"
    },
    {
      "uri": "textures/SealEyesTex_normal.png"
    },
    {
      "uri": "textures/SealEyesTex_metallicRoughness.png"
    },
    {
      "uri": "textures/SealBodyTex_baseColor.jpeg"
    },
    {
      "uri": "textures/SealBodyTex_normal.png"
    },
    {
      "uri": "textures/SealBodyTex_metallicRoughness.png"
    }
  ],
  "materials": [
    {
      "doubleSided": true,
      "name": "SealEyesTex",
      "normalTexture": {
        "index": 1,
        "scale": 1,
        "texCoord": 0
      },
      "pbrMetallicRoughness": {
        "baseColorFactor": [
          1,
          1,
          1,
          1
        ],
        "baseColorTexture": {
          "index": 0,
          "texCoord": 0
        },
        "metallicFactor": 1,
        "metallicRoughnessTexture": {
          "index": 2,
          "texCoord": 0
        },
        "roughnessFactor": 1
      }
    },
    {
      "doubleSided": true,
      "name": "SealBodyTex",
      "normalTexture": {
        "index": 4,
        "scale": 1,
        "texCoord": 0
      },
      "pbrMetallicRoughness": {
        "baseColorFactor": [
          1,
          1,
          1,
          1
        ],
        "baseColorTexture": {
          "index": 3,
          "texCoord": 0
        },
        "metallicFactor": 1,
        "metallicRoughnessTexture": {
          "index": 5,
          "texCoord": 0
        },
        "roughnessFactor": 1
      }
    }
  ],
  "meshes": [
    {
      "name": "defaultMaterial",
      "primitives": [
        {
          "attributes": {
            "NORMAL": 1,
            "POSITION": 0,
            "TANGENT": 2,
            "TEXCOORD_0": 3
          },
          "indices": 4,
          "material": 1,
          "mode": 4
        }
      ]
    },
    {
      "name": "defaultMaterial",
      "primitives": [
        {
          "attributes": {
            "NORMAL": 6,
            "POSITION": 5,
            "TANGENT": 7,
            "TEXCOORD_0": 8
          },
          "indices": 9,
          "material": 0,
          "mode": 4
        }
      ]
    }
  ],
  "nodes": [
    {
      "children": [
        1
      ],
      "name": "RootNode (gltf orientation matrix)",
      "rotation": [
        -0.70710678118654746,
        -0,
        -0,
        0.70710678118654757
      ]
    },
    {
      "children": [
        2
      ],
      "name": "RootNode (model correction matrix)"
    },
    {
      "children": [
        3,
        5
      ],
      "matrix": [
        1,
        0,
        0,
        0,
        0,
        -4.3711390063094768e-08,
        0.999999999999999,
        0,
        0,
        -0.999999999999999,
        -4.3711390063094768e-08,
        0,
        0,
        0,
        0,
        1
      ],
      "name": "Collada visual scene group"
    },
    {
      "children": [
        4
      ],
      "name": "pSphere5"
    },
    {
      "mesh": 0,
      "name": "defaultMaterial"
    },
    {
      "children": [
        6
      ],
      "name": "pSphere5"
    },
    {
      "mesh": 1,
      "name": "defaultMaterial"
    }
  ],
  "samplers": [
    {
      "magFilter": 9729,
      "minFilter": 9987,
      "wrapS": 10497,
      "wrapT": 10497
    }
  ],
  "scene": 0,
  "scenes": [
    {
      "name": "OSG_Scene",
      "nodes": [
        0
      ]
    }
  ],
  "textures": [
    {
      "sampler": 0,
      "source": 0
    },
    {
      "sampler": 0,
      "source": 1
    },
    {
      "sampler": 0,
      "source": 2
    },
    {
      "sampler": 0,
      "source": 3
    },
    {
      "sampler": 0,
      "source": 4
    },
    {
      "sampler": 0,
      "source": 5
    }
  ]
}

